<svg width="32" height="32" viewBox="0 0 32 32" fill="none" xmlns="http://www.w3.org/2000/svg">
<path d="M16.0005 4.36365C12.8404 4.36365 12.4438 4.37747 11.2026 4.43395C9.96384 4.49068 9.11829 4.6868 8.37843 4.97456C7.61312 5.27177 6.96393 5.66934 6.31716 6.31638C5.66991 6.96316 5.27235 7.61238 4.97417 8.37747C4.6857 9.11759 4.48934 9.96341 4.43358 11.2017C4.37807 12.4429 4.36353 12.8398 4.36353 16C4.36353 19.1603 4.37759 19.5557 4.43383 20.7969C4.49079 22.0357 4.68691 22.8812 4.97442 23.6211C5.27186 24.3864 5.66942 25.0357 6.31644 25.6824C6.96296 26.3297 7.61215 26.7283 8.37698 27.0255C9.11732 27.3132 9.96311 27.5093 11.2016 27.5661C12.4428 27.6226 12.8391 27.6364 15.999 27.6364C19.1594 27.6364 19.5548 27.6226 20.796 27.5661C22.0347 27.5093 22.8813 27.3132 23.6216 27.0255C24.3867 26.7283 25.0349 26.3297 25.6814 25.6824C26.3287 25.0357 26.7262 24.3864 27.0244 23.6213C27.3105 22.8812 27.5068 22.0354 27.565 20.7971C27.6208 19.5559 27.6353 19.1603 27.6353 16C27.6353 12.8398 27.6208 12.4432 27.565 11.202C27.5068 9.96316 27.3105 9.11759 27.0244 8.37771C26.7262 7.61238 26.3287 6.96316 25.6814 6.31638C25.0342 5.6691 24.3869 5.27153 23.6209 4.97456C22.8791 4.6868 22.033 4.49068 20.7943 4.43395C19.5531 4.37747 19.158 4.36365 15.9969 4.36365H16.0005ZM14.9567 6.46062C15.2665 6.46013 15.6122 6.46062 16.0005 6.46062C19.1073 6.46062 19.4755 6.47177 20.7024 6.52753C21.8369 6.57941 22.4527 6.76898 22.8628 6.92825C23.4058 7.13916 23.793 7.39128 24.2 7.79856C24.6073 8.20583 24.8594 8.59371 25.0708 9.13674C25.23 9.54644 25.4198 10.1622 25.4715 11.2967C25.5272 12.5234 25.5394 12.8919 25.5394 15.9973C25.5394 19.1028 25.5272 19.4713 25.4715 20.698C25.4196 21.8325 25.23 22.4483 25.0708 22.858C24.8599 23.401 24.6073 23.7877 24.2 24.1947C23.7927 24.602 23.4061 24.8541 22.8628 25.065C22.4532 25.225 21.8369 25.4141 20.7024 25.466C19.4758 25.5217 19.1073 25.5338 16.0005 25.5338C12.8934 25.5338 12.5252 25.5217 11.2986 25.466C10.1641 25.4136 9.54834 25.224 9.13792 25.0647C8.59491 24.8538 8.20704 24.6017 7.79978 24.1944C7.39252 23.7872 7.14041 23.4003 6.92902 22.857C6.76975 22.4473 6.57994 21.8315 6.52831 20.697C6.47255 19.4703 6.4614 19.1018 6.4614 15.9944C6.4614 12.887 6.47255 12.5205 6.52831 11.2938C6.58018 10.1593 6.76975 9.54353 6.92902 9.13335C7.13993 8.59031 7.39252 8.20244 7.79978 7.79516C8.20704 7.38789 8.59491 7.13577 9.13792 6.92438C9.54809 6.76438 10.1641 6.57528 11.2986 6.52316C12.372 6.47468 12.788 6.46013 14.9567 6.45771V6.46062ZM22.2117 8.39274C21.4408 8.39274 20.8154 9.01747 20.8154 9.78862C20.8154 10.5595 21.4408 11.185 22.2117 11.185C22.9826 11.185 23.608 10.5595 23.608 9.78862C23.608 9.01771 22.9826 8.39225 22.2117 8.39225V8.39274ZM16.0005 10.0243C12.7005 10.0243 10.0249 12.6999 10.0249 16C10.0249 19.3001 12.7005 21.9746 16.0005 21.9746C19.3005 21.9746 21.9751 19.3001 21.9751 16C21.9751 12.6999 19.3003 10.0243 16.0003 10.0243H16.0005ZM16.0005 12.1212C18.1425 12.1212 19.8792 13.8577 19.8792 16C19.8792 18.1421 18.1425 19.8788 16.0005 19.8788C13.8583 19.8788 12.1218 18.1421 12.1218 16C12.1218 13.8577 13.8583 12.1212 16.0005 12.1212Z" fill="#EC1F27"/>
</svg>
