<svg width="32" height="32" viewBox="0 0 32 32" fill="none" xmlns="http://www.w3.org/2000/svg">
<path fill-rule="evenodd" clip-rule="evenodd" d="M24.8819 12.1015C24.8896 12.3013 24.8922 12.5011 24.8922 12.701C24.8922 18.7606 20.6295 25.7562 12.8346 25.7562C10.4401 25.7562 8.2136 24.993 6.33765 23.6939C6.66926 23.7302 7.00604 23.7575 7.34798 23.7575C9.33333 23.7575 11.1619 23.0215 12.6124 21.7859C10.7579 21.7587 9.19207 20.4232 8.65203 18.6062C8.91128 18.6607 9.17828 18.688 9.45131 18.688C9.83632 18.688 10.2101 18.6336 10.5684 18.5246C8.62789 18.1067 7.16624 16.2534 7.16624 14.0276C7.16624 14.0003 7.16624 13.9912 7.16624 13.973C7.73816 14.3092 8.39275 14.518 9.08784 14.5453C7.94917 13.7185 7.20068 12.3104 7.20068 10.7205C7.20068 9.88472 7.40912 9.09429 7.77604 8.41292C9.8656 11.1929 12.9896 13.019 16.5116 13.2098C16.4392 12.8737 16.4022 12.5194 16.4022 12.1651C16.4022 9.63042 18.2997 7.57718 20.6407 7.57718C21.8595 7.57718 22.9603 8.13144 23.7329 9.02176C24.7001 8.8219 25.6063 8.44036 26.4262 7.91343C26.1084 8.98545 25.4374 9.88468 24.5606 10.4479C25.4185 10.3389 26.2368 10.0938 26.9956 9.73042C26.4262 10.648 25.7096 11.4564 24.8819 12.1015Z" fill="#EC1F27"/>
</svg>
